# xmcd
#
# Track frame offsets:
#	150
#	11212
#	29560
#	43837
#	57069
#	72228
#	90114
#	102636
#	117665
#	129710
#	141764
#	156240
#	169152
#
# Disc length: 2484 seconds
#
# Revision: 1
# Processed by: cddbd v1.5.1PL0 Copyright (c) Steve Scherf et al.
# Submitted via: audiograbber 1.83.01
#
DISCID=ba09b20d
DTITLE=Carlos André - 40 Anos de Música
DYEAR=1900
DGENRE=Lambada
TTITLE0=Siboney
TTITLE1=Solidão de Amigos
TTITLE2=Até Mais Vê
TTITLE3=Mãe Solteira
TTITLE4=Copo Prá Dois
TTITLE5=O Romance
TTITLE6=Garçon ou Garçonete
TTITLE7=Boneca Cobiçada
TTITLE8=Alguém Me Disse
TTITLE9=A Volta do Boêmio
TTITLE10=Me Ajude a Viver
TTITLE11=Geme Prá Mim Coração
TTITLE12=Tchau, Tchau Amor
EXTD=
EXTT0=
EXTT1=
EXTT2=
EXTT3=
EXTT4=
EXTT5=
EXTT6=
EXTT7=
EXTT8=
EXTT9=
EXTT10=
EXTT11=
EXTT12=
PLAYORDER=
